<svg xmlns="http://www.w3.org/2000/svg" xmlns:xlink="http://www.w3.org/1999/xlink" width="2000" zoomAndPan="magnify" viewBox="0 0 1500 1499.999933" height="2000" preserveAspectRatio="xMidYMid meet" version="1.0"><defs><clipPath id="0b1eeca70a"><path d="M 30.488281 845 L 177 845 L 177 1224 L 30.488281 1224 Z M 30.488281 845 " clip-rule="nonzero"/></clipPath><clipPath id="dcd72711d0"><path d="M 0 692.238281 L 576.136719 692.238281 L 576.136719 1373 L 0 1373 Z M 0 692.238281 " clip-rule="nonzero"/></clipPath><clipPath id="88b4be0a5a"><path d="M -10.285156 692.238281 L 505.636719 692.238281 C 544.574219 692.238281 576.136719 723.800781 576.136719 762.738281 L 576.136719 1302.75 C 576.136719 1341.6875 544.574219 1373.25 505.636719 1373.25 L -10.285156 1373.25 C -49.21875 1373.25 -80.785156 1341.6875 -80.785156 1302.75 L -80.785156 762.738281 C -80.785156 723.800781 -49.21875 692.238281 -10.285156 692.238281 Z M -10.285156 692.238281 " clip-rule="nonzero"/></clipPath></defs><path fill="#0079bb" d="M 849.9375 1234.734375 C 839.824219 1205.066406 829.671875 1175.378906 818.105469 1141.390625 C 800.566406 1180.617188 785.054688 1215.421875 769.527344 1250.207031 C 766.738281 1250.941406 765.304688 1250.386719 766.5 1247.179688 C 774.921875 1201.980469 786.667969 1157.597656 799.191406 1113.414062 C 801.183594 1106.367188 802.078125 1100.035156 799.152344 1092.746094 C 717.085938 885.75 611.351562 692.628906 465.359375 523.164062 C 358.726562 399.375 236.144531 295.101562 90.113281 219.121094 C 99.371094 216.871094 99.410156 216.808594 109.722656 220.472656 C 402.785156 324.75 612.902344 519.300781 742.351562 801.683594 C 774.742188 872.390625 799.910156 945.664062 819 1021.046875 C 819.835938 1024.511719 821.050781 1027.835938 823.0625 1034.367188 C 830.488281 1013.839844 836.78125 996.019531 843.410156 978.359375 C 886.871094 862.59375 940.105469 752.027344 1018.566406 655.277344 C 1078.117188 581.84375 1148.472656 522.488281 1239.675781 491.664062 C 1249.292969 488.398438 1259.308594 486.289062 1269.140625 483.660156 C 1272.40625 482.40625 1275.773438 481.011719 1275.613281 486.828125 C 1188.890625 549.050781 1122.53125 630.527344 1060.914062 716.183594 C 975.425781 835.074219 905.105469 962.867188 840.960938 1094.242188 C 837.855469 1100.574219 837.59375 1106.425781 838.851562 1113.355469 C 845.339844 1149.515625 850.875 1185.832031 853.203125 1222.550781 C 853.242188 1226.871094 857.824219 1232.503906 849.9375 1234.734375 Z M 849.9375 1234.734375 " fill-opacity="1" fill-rule="evenodd"/><path fill="#97be10" d="M 828.757812 943.351562 C 773.269531 748.78125 692.5 566.613281 564.742188 407.699219 C 494.144531 319.910156 412.28125 244.765625 314.210938 187.621094 C 322.09375 183.578125 328.164062 188.355469 334.316406 190.945312 C 570.378906 290.5625 719.714844 467.195312 793.894531 710.050781 C 814.640625 778.070312 827.941406 847.660156 831.644531 918.84375 C 831.542969 927.164062 836.558594 936.007812 828.757812 943.351562 Z M 828.757812 943.351562 " fill-opacity="1" fill-rule="evenodd"/><path fill="#97be10" d="M 1429.90625 688.03125 C 1184.328125 746.949219 1013.230469 898.355469 882.429688 1103.441406 C 881.59375 1101.347656 880.757812 1100.292969 880.996094 1099.636719 C 922.289062 987.117188 980.222656 884.773438 1067.601562 801.265625 C 1142.878906 729.246094 1231.492188 686.179688 1337.050781 681.640625 C 1367.035156 680.34375 1396.597656 683.191406 1429.90625 688.03125 Z M 1429.90625 688.03125 " fill-opacity="1" fill-rule="evenodd"/></svg>